<?xml version="1.0" standalone="no"?>
<!DOCTYPE svg PUBLIC "-//W3C//DTD SVG 1.1//EN" "http://www.w3.org/Graphics/SVG/1.1/DTD/svg11.dtd">
<svg version="1.1" xmlns="http://www.w3.org/2000/svg" viewBox="0 0 140.78658948958764 217.43352404483824" width="140.78658948958764" height="217.43352404483824" filter="invert(93%) hue-rotate(180deg)"><!-- svg-source:excalidraw --><metadata></metadata><defs><style class="style-fonts">
      </style></defs><rect x="0" y="0" width="140.78658948958764" height="217.43352404483824" fill="#ffffff"></rect><g stroke-linecap="round" transform="translate(10 119.64917094691356) rotate(0 34.65909090909099 43.700592885375585)"><path d="M0 0 C15.8 0, 31.6 0, 69.32 0 M0 0 C23.83 0, 47.65 0, 69.32 0 M69.32 0 C69.32 25.57, 69.32 51.13, 69.32 87.4 M69.32 0 C69.32 26.33, 69.32 52.65, 69.32 87.4 M69.32 87.4 C46.23 87.4, 23.15 87.4, 0 87.4 M69.32 87.4 C48.99 87.4, 28.66 87.4, 0 87.4 M0 87.4 C0 63.98, 0 40.56, 0 0 M0 87.4 C0 53.22, 0 19.04, 0 0" stroke="#0000" stroke-width="2" fill="none"></path></g><g stroke-linecap="round"><g transform="translate(13.30029777190498 174.45263958127128) rotate(0 32.04392751857932 6.746090003911405)" fill-rule="evenodd"><path d="M0 0 L0.19 13.3 L32.61 32.98 L62.96 14.99 L64.09 0 L31.48 -19.49 L0 0" stroke="none" stroke-width="0" fill="#ced4da" fill-rule="evenodd"></path><path d="M0 0 C0.07 5.23, 0.15 10.46, 0.19 13.3 M0 0 C0.06 4.08, 0.12 8.17, 0.19 13.3 M0.19 13.3 C11.67 20.27, 23.15 27.24, 32.61 32.98 M0.19 13.3 C11.93 20.43, 23.68 27.56, 32.61 32.98 M32.61 32.98 C39.74 28.76, 46.87 24.53, 62.96 14.99 M32.61 32.98 C39.44 28.93, 46.27 24.89, 62.96 14.99 M62.96 14.99 C63.25 11.12, 63.54 7.25, 64.09 0 M62.96 14.99 C63.4 9.19, 63.83 3.4, 64.09 0 M64.09 0 C51.69 -7.41, 39.29 -14.82, 31.48 -19.49 M64.09 0 C54.92 -5.48, 45.75 -10.96, 31.48 -19.49 M31.48 -19.49 C20.77 -12.86, 10.06 -6.23, 0 0 M31.48 -19.49 C24.11 -14.92, 16.73 -10.36, 0 0 M0 0 C0 0, 0 0, 0 0 M0 0 C0 0, 0 0, 0 0" stroke="#495057" stroke-width="2" fill="none"></path></g></g><mask></mask><g stroke-linecap="round"><g transform="translate(45.71900806848271 206.12178432185732) rotate(0 5.684341886080802e-14 -6.371307225916354)"><path d="M0 0 C0 -3.72, 0 -7.43, 0 -12.74 M0 0 C0 -3.4, 0 -6.8, 0 -12.74" stroke="#495057" stroke-width="2" fill="none"></path></g></g><mask></mask><g stroke-linecap="round"><g transform="translate(13.675080549901622 174.82742235926634) rotate(0 31.38805765708787 9.182178060879409)"><path d="M0 0 C11.85 6.79, 23.7 13.58, 32.04 18.36 M0 0 C8.23 4.71, 16.45 9.43, 32.04 18.36 M32.04 18.36 C40.77 13.41, 49.5 8.46, 62.78 0.94 M32.04 18.36 C39.88 13.92, 47.71 9.48, 62.78 0.94" stroke="#495057" stroke-width="2" fill="none"></path></g></g><mask></mask><g stroke-linecap="round"><g transform="translate(48.52987890344457 199.563085706943) rotate(0 7.5308514092099585 -4.216306252444639)"><path d="M0 0 C4.61 -2.58, 9.22 -5.16, 15.06 -8.43 M0 0 C5.29 -2.96, 10.59 -5.93, 15.06 -8.43" stroke="#495057" stroke-width="2" fill="none"></path></g></g><mask></mask><g stroke-linecap="round"><g transform="translate(66.45526561632914 187.92766744816566) rotate(0 3.9169667609290855 -0.5402712773695555)" fill-rule="evenodd"><path d="M0 0 L0.09 3.42 L7.24 -1.23 L7.83 -4.5 L0 0" stroke="none" stroke-width="0" fill="#ced4da" fill-rule="evenodd"></path><path d="M0 0 C0.03 1.24, 0.07 2.48, 0.09 3.42 M0 0 C0.03 1.09, 0.06 2.18, 0.09 3.42 M0.09 3.42 C2.64 1.76, 5.2 0.1, 7.24 -1.23 M0.09 3.42 C1.82 2.3, 3.55 1.17, 7.24 -1.23 M7.24 -1.23 C7.38 -1.96, 7.51 -2.69, 7.83 -4.5 M7.24 -1.23 C7.38 -2, 7.52 -2.77, 7.83 -4.5 M7.83 -4.5 C5.46 -3.14, 3.08 -1.77, 0 0 M7.83 -4.5 C4.91 -2.82, 1.99 -1.14, 0 0 M0 0 C0 0, 0 0, 0 0 M0 0 C0 0, 0 0, 0 0" stroke="#495057" stroke-width="1" fill="none"></path></g></g><mask></mask><g stroke-linecap="round"><g transform="translate(13.158798151647034 156.78613330892034) rotate(0 32.04392751857932 6.746090003911377)" fill-rule="evenodd"><path d="M0 0 L0.19 13.3 L32.61 32.98 L62.96 14.99 L64.09 0 L31.48 -19.49 L0 0" stroke="none" stroke-width="0" fill="#ced4da" fill-rule="evenodd"></path><path d="M0 0 C0.06 4.41, 0.12 8.83, 0.19 13.3 M0 0 C0.05 3.57, 0.1 7.13, 0.19 13.3 M0.19 13.3 C7.33 17.64, 14.46 21.97, 32.61 32.98 M0.19 13.3 C12.46 20.75, 24.73 28.2, 32.61 32.98 M32.61 32.98 C43.62 26.46, 54.63 19.93, 62.96 14.99 M32.61 32.98 C40.77 28.14, 48.93 23.31, 62.96 14.99 M62.96 14.99 C63.25 11.15, 63.54 7.31, 64.09 0 M62.96 14.99 C63.39 9.26, 63.82 3.54, 64.09 0 M64.09 0 C54.96 -5.46, 45.83 -10.91, 31.48 -19.49 M64.09 0 C52.57 -6.89, 41.04 -13.77, 31.48 -19.49 M31.48 -19.49 C20.57 -12.74, 9.67 -5.98, 0 0 M31.48 -19.49 C20.14 -12.47, 8.79 -5.44, 0 0 M0 0 C0 0, 0 0, 0 0 M0 0 C0 0, 0 0, 0 0" stroke="#495057" stroke-width="2" fill="none"></path></g></g><mask></mask><g stroke-linecap="round"><g transform="translate(45.57750844821294 188.4552780495032) rotate(0 5.684341886080802e-14 -6.371307225916354)"><path d="M0 0 C0 -3.73, 0 -7.45, 0 -12.74 M0 0 C0 -3.84, 0 -7.68, 0 -12.74" stroke="#495057" stroke-width="2" fill="none"></path></g></g><mask></mask><g stroke-linecap="round"><g transform="translate(13.533580929636855 157.16091608691494) rotate(0 31.38805765708787 9.182178060879409)"><path d="M0 0 C11.35 6.51, 22.7 13.01, 32.04 18.36 M0 0 C11.61 6.65, 23.22 13.31, 32.04 18.36 M32.04 18.36 C39.26 14.27, 46.48 10.18, 62.78 0.94 M32.04 18.36 C38.96 14.44, 45.87 10.52, 62.78 0.94" stroke="#495057" stroke-width="2" fill="none"></path></g></g><mask></mask><g stroke-linecap="round"><g transform="translate(48.38837928317935 181.89657943459082) rotate(0 7.870438337896701 -4.21630625244461)"><path d="M0 0 C3.3 -1.77, 6.6 -3.53, 15.74 -8.43 M0 0 C4.52 -2.42, 9.05 -4.85, 15.74 -8.43" stroke="#495057" stroke-width="2" fill="none"></path></g></g><mask></mask><g stroke-linecap="round"><g transform="translate(66.82314638909565 169.7517807827839) rotate(0 3.314199962510145 -0.3594412378437539)" fill-rule="evenodd"><path d="M0 0 L0.09 3.42 L6.48 -0.36 L6.63 -4.14 L0 0" stroke="none" stroke-width="0" fill="#ced4da" fill-rule="evenodd"></path><path d="M0 0 C0.03 0.97, 0.05 1.94, 0.09 3.42 M0 0 C0.02 0.87, 0.05 1.74, 0.09 3.42 M0.09 3.42 C1.87 2.37, 3.64 1.32, 6.48 -0.36 M0.09 3.42 C2.38 2.07, 4.66 0.72, 6.48 -0.36 M6.48 -0.36 C6.53 -1.63, 6.58 -2.89, 6.63 -4.14 M6.48 -0.36 C6.53 -1.67, 6.58 -2.99, 6.63 -4.14 M6.63 -4.14 C4.84 -3.02, 3.06 -1.91, 0 0 M6.63 -4.14 C4.98 -3.11, 3.32 -2.08, 0 0 M0 0 C0 0, 0 0, 0 0 M0 0 C0 0, 0 0, 0 0" stroke="#495057" stroke-width="1" fill="none"></path></g></g><mask></mask><g stroke-linecap="round"><g transform="translate(13.017298531377719 139.36073375593645) rotate(0 32.04392751857932 6.746090003911377)" fill-rule="evenodd"><path d="M0 0 L0.19 13.3 L32.61 32.98 L62.96 14.99 L64.09 0 L31.48 -19.49 L0 0" stroke="none" stroke-width="0" fill="#ced4da" fill-rule="evenodd"></path><path d="M0 0 C0.05 3.81, 0.11 7.61, 0.19 13.3 M0 0 C0.04 3.13, 0.09 6.26, 0.19 13.3 M0.19 13.3 C8.71 18.48, 17.24 23.65, 32.61 32.98 M0.19 13.3 C8.25 18.2, 16.31 23.09, 32.61 32.98 M32.61 32.98 C40.92 28.05, 49.24 23.13, 62.96 14.99 M32.61 32.98 C40 28.6, 47.4 24.22, 62.96 14.99 M62.96 14.99 C63.34 9.91, 63.73 4.82, 64.09 0 M62.96 14.99 C63.37 9.52, 63.78 4.05, 64.09 0 M64.09 0 C53.92 -6.08, 43.76 -12.15, 31.48 -19.49 M64.09 0 C51.06 -7.79, 38.02 -15.58, 31.48 -19.49 M31.48 -19.49 C21.18 -13.11, 10.87 -6.73, 0 0 M31.48 -19.49 C21.2 -13.12, 10.91 -6.75, 0 0 M0 0 C0 0, 0 0, 0 0 M0 0 C0 0, 0 0, 0 0" stroke="#495057" stroke-width="2" fill="none"></path></g></g><mask></mask><g stroke-linecap="round"><g transform="translate(45.436008827956584 171.0298784965184) rotate(0 5.684341886080802e-14 -6.371307225916354)"><path d="M0 0 C0 -4.55, 0 -9.09, 0 -12.74 M0 0 C0 -3.08, 0 -6.16, 0 -12.74" stroke="#495057" stroke-width="2" fill="none"></path></g></g><mask></mask><g stroke-linecap="round"><g transform="translate(13.392081309380046 139.73551653393037) rotate(0 31.38805765708787 9.182178060879409)"><path d="M0 0 C7.06 4.04, 14.11 8.09, 32.04 18.36 M0 0 C12.13 6.95, 24.26 13.9, 32.04 18.36 M32.04 18.36 C43.19 12.04, 54.34 5.72, 62.78 0.94 M32.04 18.36 C40.31 13.68, 48.57 8.99, 62.78 0.94" stroke="#495057" stroke-width="2" fill="none"></path></g></g><mask></mask><g stroke-linecap="round"><g transform="translate(48.2468796629189 164.47117988160477) rotate(0 7.870438337896701 -4.21630625244461)"><path d="M0 0 C5.24 -2.81, 10.48 -5.62, 15.74 -8.43 M0 0 C4.62 -2.47, 9.23 -4.95, 15.74 -8.43" stroke="#495057" stroke-width="2" fill="none"></path></g></g><mask></mask><g stroke-linecap="round"><g transform="translate(66.68164676883134 152.32638122979944) rotate(0 3.6155833617195867 -0.29916455800190533)" fill-rule="evenodd"><path d="M0 0 L0.09 3.42 L6.84 -0.24 L7.23 -4.02 L0 0" stroke="none" stroke-width="0" fill="#ced4da" fill-rule="evenodd"></path><path d="M0 0 C0.02 0.8, 0.04 1.61, 0.09 3.42 M0 0 C0.02 0.77, 0.04 1.54, 0.09 3.42 M0.09 3.42 C1.83 2.48, 3.58 1.53, 6.84 -0.24 M0.09 3.42 C2.7 2.01, 5.31 0.59, 6.84 -0.24 M6.84 -0.24 C6.99 -1.68, 7.14 -3.11, 7.23 -4.02 M6.84 -0.24 C6.95 -1.3, 7.06 -2.36, 7.23 -4.02 M7.23 -4.02 C4.77 -2.65, 2.31 -1.29, 0 0 M7.23 -4.02 C5.54 -3.08, 3.84 -2.14, 0 0 M0 0 C0 0, 0 0, 0 0 M0 0 C0 0, 0 0, 0 0" stroke="#495057" stroke-width="1" fill="none"></path></g></g><mask></mask><g stroke-linecap="round" transform="translate(18.785338429101103 10) rotate(0 36.60476580293289 34.571167702769785)"><path d="M5.77 16.94 C5.77 16.94, 5.77 16.94, 5.77 16.94 M5.77 16.94 C5.77 16.94, 5.77 16.94, 5.77 16.94 M3.17 38.75 C6.3 24.67, 14.5 15.51, 32.58 6.01 M0.87 35.89 C8.31 26.92, 15.93 16.63, 27.99 2.41 M-0.87 43.51 C14.57 29.85, 27.56 17.43, 41.76 2.02 M1.46 43.49 C10.06 35.21, 20.88 25.5, 39.36 1.79 M9.99 53.87 C16.23 39.17, 25.14 27.94, 50.23 2.76 M9.21 51.61 C19.1 34.97, 35.25 21.9, 47.68 5.61 M10.98 60.63 C29.34 37.97, 43.04 18.79, 55.36 5.71 M11.59 56.95 C24.04 46.42, 36.39 31.91, 54.84 9.47 M17.62 66.79 C35.72 40.79, 50.73 26.47, 64.11 11.3 M17.35 63.82 C36.5 46.88, 49.96 29.22, 62.34 10.32 M24.43 69.79 C38.22 55.85, 46.59 38.6, 68.56 16.93 M24.29 65.46 C33.63 55.81, 43.66 45.44, 67.81 19.6 M36.24 69.49 C50.95 53.34, 57.86 41.37, 70.96 29.64 M35.55 67.01 C44.28 56.92, 54.2 46.8, 71.07 26.83 M46.13 66.2 C55.35 54.86, 63.28 43.55, 72.62 39.2 M46.55 66.5 C55.29 53.96, 66.24 44.55, 72.08 39.73" stroke="#ffffff" stroke-width="1" fill="none"></path><path d="M21.6 3.24 C27.41 0.21, 36.53 0.92, 43.61 2.16 C50.68 3.4, 58.92 5.89, 64.05 10.69 C69.18 15.49, 73.57 24, 74.38 30.97 C75.19 37.93, 72.79 46.65, 68.93 52.47 C65.07 58.3, 57.68 63.12, 51.22 65.93 C44.75 68.74, 36.92 70.83, 30.14 69.33 C23.37 67.84, 15.76 62.07, 10.55 56.96 C5.35 51.85, -0.25 45.29, -1.1 38.67 C-1.95 32.06, -4.03 22.69, 5.46 17.29 C14.94 11.88, 44.62 4.16, 55.81 6.24 C67.01 8.33, 72.9 29.67, 72.64 29.8 M60.57 9.77 C66.83 13.12, 70.87 18.14, 72.45 23.98 C74.03 29.82, 73.06 38.5, 70.07 44.83 C67.08 51.15, 60.7 57.84, 54.48 61.91 C48.26 65.99, 39.42 69.04, 32.75 69.3 C26.08 69.56, 19.74 67.4, 14.45 63.46 C9.15 59.53, 2.56 52.51, 0.98 45.69 C-0.6 38.87, 2.32 29.37, 4.98 22.54 C7.65 15.72, 11.14 8.57, 16.96 4.75 C22.77 0.94, 32.74 -1.26, 39.85 -0.36 C46.95 0.54, 56.64 9.03, 59.57 10.14 C62.5 11.25, 57.78 6.82, 57.44 6.31" stroke="#1971c2" stroke-width="2" fill="none"></path></g><g stroke-linecap="round"><g transform="translate(31.803750526800513 69.79116840144721) rotate(0 8.92480397719163 38.22851344910872)" fill-rule="evenodd"><path d="M2.59 0.39 C0.07 6.6, -14.89 21.66, -15.6 34.59 C-16.32 47.52, -9.96 71.6, -1.71 77.94 C6.54 84.29, 29.79 79.85, 33.89 72.68 C37.99 65.52, 23.38 45.28, 22.89 34.96 C22.4 24.65, 32.24 14.99, 30.95 10.77 C29.66 6.54, 20.11 11.6, 15.13 9.61 C10.15 7.62, 3.84 0.73, 1.07 -1.19" stroke="none" stroke-width="0" fill="#ffffff" fill-rule="evenodd"></path><path d="M-1.12 0.49 C-3.54 5.03, -13.62 17.6, -14.32 29.95 C-15.02 42.3, -13.3 68.19, -5.31 74.6 C2.67 81, 29.09 75.15, 33.59 68.37 C38.1 61.59, 21.69 43.39, 21.72 33.92 C21.76 24.45, 35.31 16.12, 33.82 11.53 C32.32 6.94, 18.51 7.87, 12.76 6.38 C7.01 4.9, 1.17 3.3, -0.7 2.62 M3.47 -1.72 C0.89 4.4, -13.45 19.9, -15.15 32.97 C-16.84 46.04, -15.1 70.39, -6.72 76.7 C1.66 83, 29.69 77.6, 35.13 70.79 C40.57 63.98, 25.68 45.99, 25.93 35.83 C26.18 25.67, 38.57 15.23, 36.63 9.84 C34.69 4.45, 20.98 4.61, 14.29 3.51 C7.6 2.41, -0.85 3.78, -3.5 3.24" stroke="#1971c2" stroke-width="2" fill="none"></path></g></g><mask></mask><g transform="translate(70.81562267394929 52.97417775224022) rotate(0 0.00004880635441395498 0.00004880635439974412)" stroke="none"><path fill="#1971c2" d="M 1.57,-1.57 Q 1.57,-1.57 1.77,-1.27 1.98,-0.98 2.09,-0.64 2.20,-0.29 2.19,0.05 2.18,0.41 2.05,0.75 1.93,1.09 1.70,1.37 1.48,1.65 1.18,1.84 0.87,2.04 0.52,2.12 0.18,2.21 -0.17,2.18 -0.53,2.15 -0.86,2.01 -1.19,1.87 -1.46,1.63 -1.73,1.39 -1.90,1.07 -2.08,0.76 -2.15,0.41 -2.21,0.05 -2.17,-0.29 -2.12,-0.65 -1.96,-0.97 -1.80,-1.29 -1.54,-1.54 -1.29,-1.80 -0.97,-1.96 -0.65,-2.12 -0.29,-2.17 0.06,-2.21 0.41,-2.15 0.76,-2.08 1.07,-1.90 1.39,-1.73 1.63,-1.46 1.87,-1.19 2.01,-0.86 2.15,-0.53 2.18,-0.17 2.21,0.18 2.12,0.52 2.03,0.87 1.84,1.18 1.65,1.48 1.37,1.70 1.09,1.93 0.75,2.05 0.41,2.18 0.05,2.19 -0.30,2.20 -0.64,2.09 -0.98,1.98 -1.27,1.77 -1.57,1.56 -1.57,1.57 -1.57,1.57 -1.73,1.35 -1.90,1.14 -2.01,0.90 -2.12,0.66 -2.16,0.39 -2.21,0.13 -2.20,-0.13 -2.18,-0.40 -2.10,-0.65 -2.02,-0.91 -1.88,-1.14 -1.74,-1.36 -1.55,-1.55 -1.36,-1.74 -1.14,-1.88 -0.91,-2.02 -0.65,-2.10 -0.40,-2.18 -0.13,-2.20 0.13,-2.21 0.39,-2.16 0.66,-2.12 0.90,-2.01 1.14,-1.90 1.35,-1.73 1.57,-1.57 1.57,-1.57 L 1.57,-1.57 Z"></path></g><g transform="translate(84.65457256928426 54.86472749292557) rotate(0 0 -0.7040478418761609)" stroke="none"><path d="" stroke="#ffffff" stroke-width="0.5" fill="none"></path><path fill="#1971c2" d="M 2.12,-0.66 Q 2.12,-0.66 2.15,-0.13 2.18,0.40 1.96,0.88 1.74,1.36 1.32,1.69 0.91,2.02 0.38,2.12 -0.13,2.21 -0.64,2.05 -1.14,1.90 -1.52,1.52 -1.90,1.14 -2.05,0.64 -2.21,0.13 -2.12,-0.38 -2.02,-0.91 -1.69,-1.32 -1.36,-1.74 -0.88,-1.96 -0.39,-2.18 0.13,-2.15 0.66,-2.11 1.11,-1.84 1.57,-1.56 1.84,-1.11 L 2.12,-0.66 Z"></path></g><g stroke-linecap="round"><g transform="translate(68.88795384772709 67.46082728368717) rotate(180.707313349537 6.679552355628346 -2.422107485154811)"><path d="M0.34 -0.07 C1.07 -0.75, 2.36 -4.21, 4.5 -4.49 C6.63 -4.76, 11.69 -2.15, 13.17 -1.71 M-0.14 -0.58 C0.75 -1.39, 3.41 -4.93, 5.55 -5.27 C7.69 -5.61, 11.4 -3.29, 12.73 -2.63" stroke="#1971c2" stroke-width="1" fill="none"></path></g></g><mask></mask><g stroke-linecap="round"><g transform="translate(65.49521724945089 133.3346932080072) rotate(0 19.169279700401887 25.17988629079437)"><path d="M0 0 C15.21 -1.35, 28.82 -1.57, 38.34 -2.52 M0 0 C12.83 -0.34, 24.44 -2.58, 38.34 -2.52 M38.34 -2.52 C39.8 19.37, 38.67 38.22, 37.78 52.87 M38.34 -2.52 C37.17 19.29, 38.37 41.66, 37.78 52.87" stroke="#1971c2" stroke-width="2" fill="none"></path></g></g><mask></mask><g stroke-linecap="round"><g transform="translate(30.047852032475134 149.7619100907565) rotate(0 30.414158425991047 19.98991917441208)"><path d="M0 0 C15.38 -0.35, 29.16 -1.43, 60.83 -2.42 M0 0 C23.82 -2.07, 48.47 -2.31, 60.83 -2.42 M60.83 -2.42 C60.45 13.37, 60.16 26.95, 56.52 42.4 M60.83 -2.42 C59.41 14.84, 57.53 30.08, 56.52 42.4" stroke="#1971c2" stroke-width="2" fill="none"></path></g></g><mask></mask><g stroke-linecap="round"><g transform="translate(87.41984555460135 193.01047386899683) rotate(0 7.225901775889497 6.375795684608107)"><path d="M0 0.11 C2.42 2.28, 11.86 11.08, 14.31 13.27 M-0.66 -0.31 C1.69 1.69, 11.28 10.45, 13.81 12.57" stroke="#1971c2" stroke-width="2" fill="none"></path></g></g><mask></mask><g stroke-linecap="round"><g transform="translate(103.57186128894273 185.3595190474664) rotate(0 7.225901775889497 0.8501060912814182)"><path d="M-0.14 0.52 C2.32 0.86, 12.33 2.01, 14.75 2.15 M0.79 0.3 C3.21 0.49, 12.27 1.17, 14.48 1.42" stroke="#1971c2" stroke-width="2" fill="none"></path></g></g><mask></mask><g stroke-linecap="round"><g transform="translate(68.30843826908222 141.487839597493) rotate(0 23.964921348793496 -3.3109430810837637)" fill-rule="evenodd"><path d="M1.24 -0.66 L21.76 -16.63 L54.4 -15.37 L33.56 10.15 L-8.43 9.14 L1.89 0.34" stroke="none" stroke-width="0" fill="#ffffff" fill-rule="evenodd"></path><path d="M0 0 C7.31 -4.67, 10.25 -7.61, 21.13 -15.77 M0 0 C7.47 -4.7, 13.48 -9, 21.13 -15.77 M21.13 -15.77 C30.98 -14.56, 41.98 -15.35, 54.55 -16.4 M21.13 -15.77 C29.31 -16.18, 38.41 -15.91, 54.55 -16.4 M54.55 -16.4 C48.84 -6.53, 40.9 0.25, 32.48 9.78 M54.55 -16.4 C49.3 -8.72, 43.07 -3.46, 32.48 9.78 M32.48 9.78 C20.68 10.77, 8.47 9.44, -6.62 9.78 M32.48 9.78 C23.62 8.92, 13.49 9.47, -6.62 9.78 M-6.62 9.78 C-2.49 6.9, 0.44 1.43, 2.21 0.32 M-6.62 9.78 C-4.67 7.8, -3.62 6.3, 2.21 0.32 M2.21 0.32 C1.31 0.02, 0.5 0.27, 0 0 M2.21 0.32 C1.43 0.25, 0.51 0.09, 0 0" stroke="#1971c2" stroke-width="1" fill="none"></path></g></g><mask></mask><g stroke-linecap="round"><g transform="translate(68.0363349052468 141.1866850292496) rotate(0 23.964921348793496 -3.3109430810837637)" fill-rule="evenodd"><path d="M0 0 C0 0, 0 0, 0 0 M0 0 C0 0, 0 0, 0 0 M-3.54 10.17 C-0.23 3.74, 5.72 1.09, 14.83 -10.96 M-3.54 10.17 C0.83 3.59, 6.25 -0.89, 14.83 -10.96 M1.45 10.53 C8.91 -0.09, 18.68 -8.88, 24.41 -15.88 M1.45 10.53 C9.76 1.78, 15.91 -7.54, 24.41 -15.88 M7.09 10.14 C16.2 2.8, 24 -5.95, 29.39 -15.52 M7.09 10.14 C12.76 2.85, 18.7 -3.98, 29.39 -15.52 M12.08 10.5 C18.71 3.15, 22.27 -1.75, 35.04 -15.92 M12.08 10.5 C19.89 1.28, 30.02 -9.16, 35.04 -15.92 M17.72 10.1 C24.2 1.37, 29.46 -3.2, 40.02 -15.56 M17.72 10.1 C23.49 2.75, 30.23 -4.78, 40.02 -15.56 M22.71 10.46 C32.42 -1.83, 40.22 -10.98, 45.67 -15.95 M22.71 10.46 C29.14 4.26, 34.3 -2.81, 45.67 -15.95 M28.35 10.07 C32.56 4.46, 41.28 -4.9, 51.31 -16.35 M28.35 10.07 C33.6 4.22, 39.66 -2.35, 51.31 -16.35 M-6.94 9.5 C-6.94 9.5, -6.94 9.5, -6.94 9.5 M-6.94 9.5 C-6.94 9.5, -6.94 9.5, -6.94 9.5 M-0.54 9.76 C-1.14 9.2, -1.93 8.71, -3.56 7.14 M-0.54 9.76 C-1.74 8.73, -2.92 7.7, -3.56 7.14 M5.86 10.03 C4.77 9.44, 3.89 7.43, -0.93 4.12 M5.86 10.03 C3.72 8.66, 2.29 6.93, -0.93 4.12 M11.5 9.63 C6.33 6.5, 2.45 2.06, 1.69 1.1 M11.5 9.63 C8.74 8.45, 6.74 6.07, 1.69 1.1 M0.18 -0.21 C0.18 -0.21, 0.18 -0.21, 0.18 -0.21 M0.18 -0.21 C0.18 -0.21, 0.18 -0.21, 0.18 -0.21 M17.9 9.89 C16.56 6.43, 12.42 4.15, 3.56 -2.57 M17.9 9.89 C15.55 8.11, 12.16 4.01, 3.56 -2.57 M23.54 9.5 C16.61 6.13, 13.79 0.83, 6.94 -4.94 M23.54 9.5 C19.24 7.13, 16.14 3.4, 6.94 -4.94 M29.94 9.76 C23.28 3.5, 15.97 1.12, 10.32 -7.3 M29.94 9.76 C24.74 5.21, 19.17 -0.81, 10.32 -7.3 M34.08 8.05 C26.6 -0.47, 18.06 -6.74, 12.94 -10.32 M34.08 8.05 C26.3 1.86, 18.3 -4.76, 12.94 -10.32 M36.7 5.03 C32.21 1.48, 25.4 -4.93, 16.32 -12.68 M36.7 5.03 C31.01 0.62, 25.25 -6.22, 16.32 -12.68 M39.32 2.01 C34.15 -0.9, 28.51 -4.74, 19.7 -15.04 M39.32 2.01 C31.7 -4.27, 24.58 -10.53, 19.7 -15.04 M41.95 -1 C36.23 -6.92, 30.64 -10.36, 24.59 -16.09 M41.95 -1 C36.12 -5.01, 30.83 -11.47, 24.59 -16.09 M44.57 -4.02 C41.93 -8.68, 38.14 -9.78, 30.23 -16.49 M44.57 -4.02 C39.88 -7.81, 34.53 -11.96, 30.23 -16.49 M47.2 -7.04 C44.83 -10.18, 40.38 -11.88, 36.63 -16.23 M47.2 -7.04 C43.88 -10.88, 39.29 -13.64, 36.63 -16.23 M49.82 -10.06 C47.65 -11.67, 45.76 -14.17, 42.27 -16.62 M49.82 -10.06 C46.8 -11.88, 44.8 -14.66, 42.27 -16.62 M51.69 -13.74 C50.45 -14.93, 49.31 -15.43, 48.67 -16.36 M51.69 -13.74 C51.07 -14.4, 50.36 -14.85, 48.67 -16.36" stroke="#868e96" stroke-width="0.5" fill="none"></path><path d="M0 0 C6.14 -4.39, 15.04 -10.56, 21.13 -15.77 M0 0 C8.36 -5.17, 15.79 -11.42, 21.13 -15.77 M21.13 -15.77 C29.96 -15.59, 34.78 -16.9, 54.55 -16.4 M21.13 -15.77 C28.73 -15.74, 38.28 -15.46, 54.55 -16.4 M54.55 -16.4 C48.13 -8.09, 41.31 0.11, 32.48 9.78 M54.55 -16.4 C47.91 -9.12, 42.19 -2.07, 32.48 9.78 M32.48 9.78 C25.7 10.02, 14.2 11.43, -6.62 9.78 M32.48 9.78 C19.11 9.05, 8.55 9.24, -6.62 9.78 M-6.62 9.78 C-4.23 6.26, -3.59 6.39, 2.21 0.32 M-6.62 9.78 C-4.76 7.57, -1.29 5.07, 2.21 0.32 M2.21 0.32 C1.66 0.43, 1.37 0.13, 0 0 M2.21 0.32 C1.47 0.23, 0.79 0.08, 0 0" stroke="#1971c2" stroke-width="1" fill="none"></path></g></g><mask></mask><g stroke-linecap="round"><g transform="translate(101.14576571607995 150.01586657880478) rotate(0 14.820411886753845 -32.00578311713889)" fill-rule="evenodd"><path d="M-1.44 -0.27 L7.22 -32.65 L29.47 -63.29 L24.1 -25.3 L0.12 0.14" stroke="none" stroke-width="0" fill="#ffffff" fill-rule="evenodd"></path><path d="M0 0 C1.94 -9.36, 4.92 -17.91, 5.36 -34.37 M0 0 C1.49 -10.87, 2.54 -22.87, 5.36 -34.37 M5.36 -34.37 C13.17 -45.63, 21.44 -57.34, 29.64 -64.01 M5.36 -34.37 C12.03 -41.62, 18.14 -49.4, 29.64 -64.01 M29.64 -64.01 C25.97 -47.53, 23.85 -33.62, 22.7 -26.17 M29.64 -64.01 C27.03 -49.9, 23.13 -33.34, 22.7 -26.17 M22.7 -26.17 C13.21 -15.19, 6.63 -6.73, 0 0 M22.7 -26.17 C18.54 -20.98, 12.43 -14.78, 0 0 M0 0 C0 0, 0 0, 0 0 M0 0 C0 0, 0 0, 0 0" stroke="#1971c2" stroke-width="2" fill="none"></path></g></g><mask></mask><g stroke-linecap="round"><g transform="translate(60.216450633605746 94.39816728038738) rotate(0 19.51195240123502 16.315021289988692)"><path d="M0.36 0.97 C2.74 4.15, 8.45 13.75, 14.99 19.2 C21.53 24.66, 35.61 31.35, 39.59 33.72 M-0.91 0.43 C1.36 3.24, 8 12.04, 14.67 17.3 C21.34 22.55, 35.06 29.62, 39.12 31.95" stroke="#1971c2" stroke-width="2" fill="none"></path></g></g><mask></mask><g stroke-linecap="round"><g transform="translate(34.17848971637568 71.76063072828038) rotate(0 30.391820144662177 32.32322055507291)"><path d="M1.19 0.41 C3.49 7.09, 5.71 31.2, 14.17 41.05 C22.62 50.9, 44.34 55.55, 51.94 59.51 C59.53 63.47, 58.15 63.79, 59.73 64.82 M0.36 -0.42 C2.52 5.86, 5.06 29.83, 13.51 39.5 C21.97 49.16, 43.43 53.16, 51.08 57.58 C58.74 62, 57.89 65.12, 59.43 66.02" stroke="#1971c2" stroke-width="2" fill="none"></path></g></g><mask></mask></svg>